<svg width="60" height="60" viewBox="0 0 60 60" fill="none" xmlns="http://www.w3.org/2000/svg">
  <!-- Document background -->
  <rect x="10" y="10" width="40" height="40" rx="4" fill="#f0f4ff" stroke="#455bf1" stroke-width="2"/>
  
  <!-- Document lines -->
  <line x1="15" y1="20" x2="45" y2="20" stroke="#455bf1" stroke-width="1"/>
  <line x1="15" y1="25" x2="40" y2="25" stroke="#455bf1" stroke-width="1"/>
  <line x1="15" y1="30" x2="35" y2="30" stroke="#455bf1" stroke-width="1"/>
  <line x1="15" y1="35" x2="42" y2="35" stroke="#455bf1" stroke-width="1"/>
  
  <!-- Chart bars -->
  <rect x="18" y="42" width="3" height="6" fill="#455bf1"/>
  <rect x="23" y="40" width="3" height="8" fill="#455bf1"/>
  <rect x="28" y="38" width="3" height="10" fill="#455bf1"/>
  <rect x="33" y="41" width="3" height="7" fill="#455bf1"/>
  <rect x="38" y="39" width="3" height="9" fill="#455bf1"/>
  
  <!-- Analysis icons -->
  <circle cx="25" cy="15" r="2" fill="#3748c8"/>
  <circle cx="30" cy="15" r="2" fill="#3748c8"/>
  <circle cx="35" cy="15" r="2" fill="#3748c8"/>
  
  <!-- Policy checkmark -->
  <path d="M45 15 L47 17 L49 13" stroke="#4E9A06" stroke-width="2" fill="none"/>
  
  <!-- Data points -->
  <circle cx="20" cy="45" r="1" fill="#3748c8"/>
  <circle cx="25" cy="43" r="1" fill="#3748c8"/>
  <circle cx="30" cy="41" r="1" fill="#3748c8"/>
  <circle cx="35" cy="44" r="1" fill="#3748c8"/>
  <circle cx="40" cy="42" r="1" fill="#3748c8"/>
</svg>
